REM DIRINDEX 1\2,1\3
REM DIRNAME folder01,folder02,folder03
TITLE ""
FILE "1541-1560.mp3" MP3
  TRACK 01 AUDIO
    TITLE "0:"
    INDEX 01 00:00:00
  TRACK 02 AUDIO
    TITLE "2:cjc039_2081"
    INDEX 01 00:00:27
  TRACK 03 AUDIO
    TITLE "0:"
    INDEX 01 00:01:34
  TRACK 04 AUDIO
    TITLE "3:cjc039_2082"
    INDEX 01 00:02:14
  TRACK 05 AUDIO
    TITLE "0:"
    INDEX 01 00:05:65
  TRACK 06 AUDIO
    TITLE "2:cjc039_2083"
    INDEX 01 00:07:39
  TRACK 07 AUDIO
    TITLE "0:"
    INDEX 01 00:08:64
  TRACK 08 AUDIO
    TITLE "3:cjc039_2084"
    INDEX 01 00:09:36
  TRACK 09 AUDIO
    TITLE "0:"
    INDEX 01 00:12:71
  TRACK 10 AUDIO
    TITLE "2:cjc039_2085"
    INDEX 01 00:14:37
  TRACK 11 AUDIO
    TITLE "0:"
    INDEX 01 00:15:38
  TRACK 12 AUDIO
    TITLE "3:cjc039_2086"
    INDEX 01 00:16:08
  TRACK 13 AUDIO
    TITLE "0:"
    INDEX 01 00:19:32
  TRACK 14 AUDIO
    TITLE "2:cjc039_2087"
    INDEX 01 00:21:08
  TRACK 15 AUDIO
    TITLE "0:"
    INDEX 01 00:22:34
  TRACK 16 AUDIO
    TITLE "3:cjc039_2088"
    INDEX 01 00:23:06
  TRACK 17 AUDIO
    TITLE "0:"
    INDEX 01 00:27:41
  TRACK 18 AUDIO
    TITLE "2:cjc039_2089"
    INDEX 01 00:29:13
  TRACK 19 AUDIO
    TITLE "0:"
    INDEX 01 00:30:46
  TRACK 20 AUDIO
    TITLE "3:cjc039_2090"
    INDEX 01 00:31:26
  TRACK 21 AUDIO
    TITLE "0:"
    INDEX 01 00:34:73
  TRACK 22 AUDIO
    TITLE "2:cjc039_2091"
    INDEX 01 00:36:46
  TRACK 23 AUDIO
    TITLE "0:"
    INDEX 01 00:37:73
  TRACK 24 AUDIO
    TITLE "3:cjc039_2092"
    INDEX 01 00:38:43
  TRACK 25 AUDIO
    TITLE "0:"
    INDEX 01 00:44:40
  TRACK 26 AUDIO
    TITLE "2:cjc039_2093"
    INDEX 01 00:46:09
  TRACK 27 AUDIO
    TITLE "0:"
    INDEX 01 00:47:13
  TRACK 28 AUDIO
    TITLE "3:cjc039_2094"
    INDEX 01 00:47:66
  TRACK 29 AUDIO
    TITLE "0:"
    INDEX 01 00:51:58
  TRACK 30 AUDIO
    TITLE "2:cjc039_2095"
    INDEX 01 00:53:33
  TRACK 31 AUDIO
    TITLE "0:"
    INDEX 01 00:54:56
  TRACK 32 AUDIO
    TITLE "3:cjc039_2096"
    INDEX 01 00:55:34
  TRACK 33 AUDIO
    TITLE "0:"
    INDEX 01 00:59:53
  TRACK 34 AUDIO
    TITLE "2:cjc039_2097"
    INDEX 01 01:01:27
  TRACK 35 AUDIO
    TITLE "0:"
    INDEX 01 01:02:50
  TRACK 36 AUDIO
    TITLE "3:cjc039_2098"
    INDEX 01 01:03:27
  TRACK 37 AUDIO
    TITLE "0:"
    INDEX 01 01:07:31
  TRACK 38 AUDIO
    TITLE "2:cjc039_2099"
    INDEX 01 01:09:05
  TRACK 39 AUDIO
    TITLE "0:"
    INDEX 01 01:10:22
  TRACK 40 AUDIO
    TITLE "3:cjc039_2100"
    INDEX 01 01:11:00
  TRACK 41 AUDIO
    TITLE "0:"
    INDEX 01 01:16:71
  TRACK 42 AUDIO
    TITLE "2:cjc039_2101"
    INDEX 01 01:18:45
  TRACK 43 AUDIO
    TITLE "0:"
    INDEX 01 01:19:70
  TRACK 44 AUDIO
    TITLE "3:cjc039_2102"
    INDEX 01 01:20:38
  TRACK 45 AUDIO
    TITLE "0:"
    INDEX 01 01:24:22
  TRACK 46 AUDIO
    TITLE "2:cjc039_2103"
    INDEX 01 01:25:72
  TRACK 47 AUDIO
    TITLE "0:"
    INDEX 01 01:27:38
  TRACK 48 AUDIO
    TITLE "3:cjc039_2104"
    INDEX 01 01:28:16
  TRACK 49 AUDIO
    TITLE "0:"
    INDEX 01 01:32:49
  TRACK 50 AUDIO
    TITLE "2:cjc039_2105"
    INDEX 01 01:34:22
  TRACK 51 AUDIO
    TITLE "0:"
    INDEX 01 01:35:31
  TRACK 52 AUDIO
    TITLE "3:cjc039_2106"
    INDEX 01 01:36:09
  TRACK 53 AUDIO
    TITLE "0:"
    INDEX 01 01:39:59
  TRACK 54 AUDIO
    TITLE "2:cjc039_2107"
    INDEX 01 01:41:34
  TRACK 55 AUDIO
    TITLE "0:"
    INDEX 01 01:42:47
  TRACK 56 AUDIO
    TITLE "3:cjc039_2108"
    INDEX 01 01:43:29
  TRACK 57 AUDIO
    TITLE "0:"
    INDEX 01 01:47:13
  TRACK 58 AUDIO
    TITLE "2:cjc039_2109"
    INDEX 01 01:48:63
  TRACK 59 AUDIO
    TITLE "0:"
    INDEX 01 01:49:73
  TRACK 60 AUDIO
    TITLE "3:cjc039_2110"
    INDEX 01 01:50:49
  TRACK 61 AUDIO
    TITLE "0:"
    INDEX 01 01:54:13
  TRACK 62 AUDIO
    TITLE "2:cjc039_2111"
    INDEX 01 01:55:63
  TRACK 63 AUDIO
    TITLE "0:"
    INDEX 01 01:57:04
  TRACK 64 AUDIO
    TITLE "3:cjc039_2112"
    INDEX 01 01:57:55
  TRACK 65 AUDIO
    TITLE "0:"
    INDEX 01 02:00:74
  TRACK 66 AUDIO
    TITLE "2:cjc039_2113"
    INDEX 01 02:02:48
  TRACK 67 AUDIO
    TITLE "0:"
    INDEX 01 02:03:65
  TRACK 68 AUDIO
    TITLE "3:cjc039_2114"
    INDEX 01 02:04:35
  TRACK 69 AUDIO
    TITLE "0:"
    INDEX 01 02:09:05
  TRACK 70 AUDIO
    TITLE "2:cjc039_2115"
    INDEX 01 02:10:55
  TRACK 71 AUDIO
    TITLE "0:"
    INDEX 01 02:12:07
  TRACK 72 AUDIO
    TITLE "3:cjc039_2116"
    INDEX 01 02:12:58
  TRACK 73 AUDIO
    TITLE "0:"
    INDEX 01 02:18:10
  TRACK 74 AUDIO
    TITLE "2:cjc039_2117"
    INDEX 01 02:19:64
  TRACK 75 AUDIO
    TITLE "0:"
    INDEX 01 02:21:22
  TRACK 76 AUDIO
    TITLE "3:cjc039_2118"
    INDEX 01 02:22:00
  TRACK 77 AUDIO
    TITLE "0:"
    INDEX 01 02:26:11
  TRACK 78 AUDIO
    TITLE "2:cjc039_2119"
    INDEX 01 02:27:60
  TRACK 79 AUDIO
    TITLE "0:"
    INDEX 01 02:29:19
  TRACK 80 AUDIO
    TITLE "3:cjc039_2120"
    INDEX 01 02:29:70
  TRACK 81 AUDIO
    TITLE "0:"
    INDEX 01 02:33:52
